<svg width="102" height="24" viewBox="0 0 102 24" fill="none" xmlns="http://www.w3.org/2000/svg">
<path d="M10 19.5C10 15.3579 13.3579 12 17.5 12H20V14.5C20 18.6421 16.6421 22 12.5 22H10V19.5Z" fill="#008F0E"/>
<path d="M10 9.5C10 5.35786 13.3579 2 17.5 2H20V4.5C20 8.64214 16.6421 12 12.5 12H10V9.5Z" fill="#BFDC0D"/>
<path d="M10 9.5C10 5.35786 6.64214 2 2.5 2H0V4.5C0 8.64214 3.35786 12 7.5 12H10V9.5Z" fill="#BFDC0D"/>
<path d="M10 19.5C10 15.3579 6.64214 12 2.5 12H0V14.5C0 18.6421 3.35786 22 7.5 22H10V19.5Z" fill="#008F0E"/>
<path d="M51.56 6.2V10H36.4V11.7H48.8V15.1H36.4V19H31.4V6.2H51.56ZM51.3586 5.2H56.1586V19H51.3586V5.2ZM69.3856 15.48H74.1056C73.9856 16.2533 73.599 16.9267 72.9456 17.5C72.3056 18.0733 71.3656 18.52 70.1256 18.84C68.899 19.1467 67.3323 19.3 65.4256 19.3C63.4123 19.3 61.6723 19.14 60.2056 18.82C58.7523 18.5 57.6323 17.96 56.8456 17.2C56.059 16.44 55.6656 15.4133 55.6656 14.12C55.6656 12.84 56.0456 11.82 56.8056 11.06C57.579 10.2867 58.6923 9.73333 60.1456 9.4C61.599 9.06667 63.359 8.9 65.4256 8.9C67.4523 8.9 69.1123 9.08 70.4056 9.44C71.699 9.8 72.6523 10.3867 73.2656 11.2C73.879 12 74.1723 13.0867 74.1456 14.46H60.5456C60.6123 14.8067 60.799 15.1267 61.1056 15.42C61.4256 15.7133 61.9123 15.9533 62.5656 16.14C63.2323 16.3133 64.119 16.4 65.2256 16.4C66.3723 16.4 67.3123 16.32 68.0456 16.16C68.7923 16 69.239 15.7733 69.3856 15.48ZM65.2256 11.8C63.8123 11.8 62.7323 11.9533 61.9856 12.26C61.2523 12.5667 60.819 12.8733 60.6856 13.18H69.4856C69.3923 12.8333 69.019 12.52 68.3656 12.24C67.7123 11.9467 66.6656 11.8 65.2256 11.8ZM91.5084 19H86.7084V9.2H91.5084V19ZM86.9084 13.94L86.9484 14.9C86.9084 15.18 86.7751 15.5067 86.5484 15.88C86.3351 16.2533 86.0351 16.64 85.6484 17.04C85.2618 17.44 84.7884 17.8133 84.2284 18.16C83.6684 18.4933 83.0284 18.7667 82.3084 18.98C81.5884 19.1933 80.7884 19.3 79.9084 19.3C79.0284 19.3 78.1951 19.2067 77.4084 19.02C76.6218 18.8467 75.9218 18.5533 75.3084 18.14C74.6951 17.7267 74.2151 17.1733 73.8684 16.48C73.5218 15.7733 73.3484 14.8933 73.3484 13.84V9.2H78.1484V13.34C78.1484 14.0733 78.2684 14.64 78.5084 15.04C78.7618 15.44 79.1551 15.72 79.6884 15.88C80.2218 16.0267 80.9084 16.1 81.7484 16.1C82.5351 16.1 83.2618 15.9867 83.9284 15.76C84.6084 15.52 85.2018 15.2333 85.7084 14.9C86.2284 14.5667 86.6284 14.2467 86.9084 13.94ZM90.9094 9.2H95.7094V19H90.9094V9.2ZM100.869 12.9C100.003 12.9 99.2094 12.98 98.4894 13.14C97.7694 13.3 97.156 13.4933 96.6494 13.72C96.1427 13.9333 95.7627 14.1467 95.5094 14.36L95.4694 13.4C95.5094 13.12 95.616 12.7933 95.7894 12.42C95.9627 12.0333 96.196 11.64 96.4894 11.24C96.7827 10.8267 97.1427 10.4467 97.5694 10.1C97.996 9.74 98.4827 9.45333 99.0294 9.24C99.5894 9.01333 100.203 8.9 100.869 8.9V12.9Z" fill="black"/>
</svg>
